<svg xmlns="http://www.w3.org/2000/svg" xmlns:xlink="http://www.w3.org/1999/xlink" viewBox="0 0 1366 768"><defs><style>.cls-1{fill:url(#linear-gradient);}.cls-2{opacity:0.84;}.cls-3{opacity:0.64;}.cls-4{fill:#aedbc9;}</style><linearGradient id="linear-gradient" x1="1020.03" y1="-199.75" x2="345.97" y2="967.75" gradientUnits="userSpaceOnUse"><stop offset="0" stop-color="#00b985"/><stop offset="1" stop-color="#083d32"/></linearGradient></defs><title>Untitled-1</title><g id="Layer_2" data-name="Layer 2"><rect class="cls-1" width="1366" height="768"/></g><g id="Layer_1" data-name="Layer 1"><g class="cls-2"><g class="cls-3"><path class="cls-4" d="M1366,0V83a72.48,72.48,0,0,0-16,22,45.46,45.46,0,0,0-9-.89,44.47,44.47,0,0,0-5.43.33c-9.36-26.31-29.83-44.57-53.57-44.57-21.07,0-39.57,14.38-50,36a45.85,45.85,0,0,0-18,0c-10.44-21.64-28.94-36-50-36s-39.57,14.38-50,36a45.85,45.85,0,0,0-18,0c-10.44-21.64-28.94-36-50-36s-39.57,14.38-50,36a45.46,45.46,0,0,0-9-.89,46.19,46.19,0,0,0-10.8,1.29c-10.4-21.86-29-36.42-50.2-36.42-21.62,0-40.52,15.13-50.8,37.71a46.18,46.18,0,0,0-32.11.62C832.87,75.28,813.82,59.86,792,59.86c-21.07,0-39.57,14.38-50,36a45.46,45.46,0,0,0-9-.89c-21.07,0-39.56,14.38-50,36V0Z"/></g><g class="cls-3"><path class="cls-4" d="M0,0V83a72.48,72.48,0,0,1,16,22,45.46,45.46,0,0,1,9-.89,44.47,44.47,0,0,1,5.43.33C39.79,78.12,60.26,59.86,84,59.86c21.07,0,39.57,14.38,50,36a45.85,45.85,0,0,1,18,0c10.44-21.64,28.94-36,50-36s39.57,14.38,50,36a45.85,45.85,0,0,1,18,0c10.44-21.64,28.94-36,50-36s39.57,14.38,50,36a45.46,45.46,0,0,1,9-.89,46.19,46.19,0,0,1,10.8,1.29c10.4-21.86,29-36.42,50.2-36.42,21.62,0,40.52,15.13,50.8,37.71a46.18,46.18,0,0,1,32.11.62C533.13,75.28,552.18,59.86,574,59.86c21.07,0,39.57,14.38,50,36a45.46,45.46,0,0,1,9-.89c21.07,0,39.56,14.38,50,36V0Z"/></g></g><image width="486" height="356" transform="translate(880 412)" xlink:href="../../Creative Cloud Files/1x/Flower3.png"/></g></svg>