<svg xmlns="http://www.w3.org/2000/svg" xmlns:xlink="http://www.w3.org/1999/xlink" viewBox="0 0 1366 768"><defs><style>.cls-1{fill:url(#linear-gradient);}.cls-10,.cls-11,.cls-12,.cls-13,.cls-14,.cls-15,.cls-16,.cls-17,.cls-18,.cls-19,.cls-2,.cls-20,.cls-21,.cls-22,.cls-23,.cls-24,.cls-25,.cls-26,.cls-27,.cls-28,.cls-29,.cls-3,.cls-30,.cls-31,.cls-32,.cls-33,.cls-34,.cls-35,.cls-36,.cls-37,.cls-38,.cls-39,.cls-4,.cls-40,.cls-41,.cls-42,.cls-43,.cls-44,.cls-45,.cls-46,.cls-47,.cls-48,.cls-49,.cls-5,.cls-50,.cls-51,.cls-52,.cls-53,.cls-54,.cls-55,.cls-56,.cls-57,.cls-58,.cls-59,.cls-6,.cls-60,.cls-61,.cls-7,.cls-8,.cls-9{opacity:0.13;}.cls-2{fill:url(#linear-gradient-2);}.cls-3{fill:url(#linear-gradient-3);}.cls-4{fill:url(#linear-gradient-4);}.cls-5{fill:url(#linear-gradient-5);}.cls-6{fill:url(#linear-gradient-6);}.cls-7{fill:url(#linear-gradient-7);}.cls-8{fill:url(#linear-gradient-8);}.cls-9{fill:url(#linear-gradient-9);}.cls-10{fill:url(#linear-gradient-10);}.cls-11{fill:url(#linear-gradient-11);}.cls-12{fill:url(#linear-gradient-12);}.cls-13{fill:url(#linear-gradient-13);}.cls-14{fill:url(#linear-gradient-14);}.cls-15{fill:url(#linear-gradient-15);}.cls-16{fill:url(#linear-gradient-16);}.cls-17{fill:url(#linear-gradient-17);}.cls-18{fill:url(#linear-gradient-18);}.cls-19{fill:url(#linear-gradient-19);}.cls-20{fill:url(#linear-gradient-20);}.cls-21{fill:url(#linear-gradient-21);}.cls-22{fill:url(#linear-gradient-22);}.cls-23{fill:url(#linear-gradient-23);}.cls-24{fill:url(#linear-gradient-24);}.cls-25{fill:url(#linear-gradient-25);}.cls-26{fill:url(#linear-gradient-26);}.cls-27{fill:url(#linear-gradient-27);}.cls-28{fill:url(#linear-gradient-28);}.cls-29{fill:url(#linear-gradient-29);}.cls-30{fill:url(#linear-gradient-30);}.cls-31{fill:url(#linear-gradient-31);}.cls-32{fill:url(#linear-gradient-32);}.cls-33{fill:url(#linear-gradient-33);}.cls-34{fill:url(#linear-gradient-34);}.cls-35{fill:url(#linear-gradient-35);}.cls-36{fill:url(#linear-gradient-36);}.cls-37{fill:url(#linear-gradient-37);}.cls-38{fill:url(#linear-gradient-38);}.cls-39{fill:url(#linear-gradient-39);}.cls-40{fill:url(#linear-gradient-40);}.cls-41{fill:url(#linear-gradient-41);}.cls-42{fill:url(#linear-gradient-42);}.cls-43{fill:url(#linear-gradient-43);}.cls-44{fill:url(#linear-gradient-44);}.cls-45{fill:url(#linear-gradient-45);}.cls-46{fill:url(#linear-gradient-46);}.cls-47{fill:url(#linear-gradient-47);}.cls-48{fill:url(#linear-gradient-48);}.cls-49{fill:url(#linear-gradient-49);}.cls-50{fill:url(#linear-gradient-50);}.cls-51{fill:url(#linear-gradient-51);}.cls-52{fill:url(#linear-gradient-52);}.cls-53{fill:url(#linear-gradient-53);}.cls-54{fill:url(#linear-gradient-54);}.cls-55{fill:url(#linear-gradient-55);}.cls-56{fill:url(#linear-gradient-56);}.cls-57{fill:url(#linear-gradient-57);}.cls-58{fill:url(#linear-gradient-58);}.cls-59{fill:url(#linear-gradient-59);}.cls-60{fill:url(#linear-gradient-60);}.cls-61{fill:url(#linear-gradient-61);}.cls-62{opacity:0.2;fill:url(#linear-gradient-62);}.cls-63{fill:#00452e;}</style><linearGradient id="linear-gradient" x1="1020.03" y1="-199.75" x2="345.97" y2="967.75" gradientUnits="userSpaceOnUse"><stop offset="0" stop-color="#007353"/><stop offset="0.09" stop-color="#00745a"/><stop offset="0.23" stop-color="#00776c"/><stop offset="0.38" stop-color="#007d8a"/><stop offset="0.55" stop-color="#0084b4"/><stop offset="0.65" stop-color="#0089d0"/><stop offset="0.69" stop-color="#078dd0"/><stop offset="0.74" stop-color="#1c99d2"/><stop offset="0.8" stop-color="#3dabd4"/><stop offset="0.87" stop-color="#6bc6d7"/><stop offset="0.95" stop-color="#a5e7db"/><stop offset="1" stop-color="#d0ffde"/></linearGradient><linearGradient id="linear-gradient-2" x1="183.1" y1="249.57" x2="110.21" y2="375.81" gradientTransform="translate(-131.28 615.62) rotate(-60)" gradientUnits="userSpaceOnUse"><stop offset="0" stop-color="#3aff17"/><stop offset="0.07" stop-color="#38fb1e"/><stop offset="0.17" stop-color="#32ef30"/><stop offset="0.29" stop-color="#29dc4e"/><stop offset="0.43" stop-color="#1cc178"/><stop offset="0.57" stop-color="#0b9fad"/><stop offset="0.65" stop-color="#0089d0"/><stop offset="0.69" stop-color="#078dd0"/><stop offset="0.74" stop-color="#1c99d2"/><stop offset="0.8" stop-color="#3dabd4"/><stop offset="0.87" stop-color="#6bc6d7"/><stop offset="0.95" stop-color="#a5e7db"/><stop offset="1" stop-color="#d0ffde"/></linearGradient><linearGradient id="linear-gradient-3" x1="179.52" y1="168.33" x2="133.3" y2="248.39" xlink:href="#linear-gradient-2"/><linearGradient id="linear-gradient-4" x1="279.09" y1="282.42" x2="232.87" y2="362.48" xlink:href="#linear-gradient-2"/><linearGradient id="linear-gradient-5" x1="302.18" y1="150" x2="229.29" y2="276.24" xlink:href="#linear-gradient-2"/><linearGradient id="linear-gradient-6" x1="138.81" y1="401.47" x2="39.26" y2="573.89" gradientTransform="translate(-148.12 290.22) rotate(-30)" gradientUnits="userSpaceOnUse"><stop offset="0" stop-color="#5300e7"/><stop offset="0.09" stop-color="#4f07e6"/><stop offset="0.21" stop-color="#4419e3"/><stop offset="0.36" stop-color="#3237de"/><stop offset="0.52" stop-color="#1861d7"/><stop offset="0.65" stop-color="#0089d0"/><stop offset="0.69" stop-color="#078dd0"/><stop offset="0.74" stop-color="#1c99d2"/><stop offset="0.8" stop-color="#3dabd4"/><stop offset="0.87" stop-color="#6bc6d7"/><stop offset="0.95" stop-color="#a5e7db"/><stop offset="1" stop-color="#d0ffde"/></linearGradient><linearGradient id="linear-gradient-7" x1="112.14" y1="301.9" x2="65.92" y2="381.96" xlink:href="#linear-gradient-6"/><linearGradient id="linear-gradient-8" x1="257.89" y1="447.65" x2="211.67" y2="527.71" xlink:href="#linear-gradient-6"/><linearGradient id="linear-gradient-9" x1="284.55" y1="255.72" x2="185.01" y2="428.14" xlink:href="#linear-gradient-6"/><linearGradient id="linear-gradient-10" x1="176.4" y1="555.16" x2="76.85" y2="727.59" gradientUnits="userSpaceOnUse"><stop offset="0" stop-color="#ff0047"/><stop offset="0.06" stop-color="#f8044b"/><stop offset="0.14" stop-color="#e60d54"/><stop offset="0.24" stop-color="#c81e65"/><stop offset="0.35" stop-color="#9e347b"/><stop offset="0.46" stop-color="#685198"/><stop offset="0.58" stop-color="#2774bb"/><stop offset="0.65" stop-color="#0089d0"/><stop offset="0.69" stop-color="#078dd0"/><stop offset="0.74" stop-color="#1c99d2"/><stop offset="0.8" stop-color="#3dabd4"/><stop offset="0.87" stop-color="#6bc6d7"/><stop offset="0.95" stop-color="#a5e7db"/><stop offset="1" stop-color="#d0ffde"/></linearGradient><linearGradient id="linear-gradient-11" x1="149.74" y1="455.59" x2="103.51" y2="535.66" xlink:href="#linear-gradient-10"/><linearGradient id="linear-gradient-12" x1="295.49" y1="601.34" x2="249.26" y2="681.4" xlink:href="#linear-gradient-10"/><linearGradient id="linear-gradient-13" x1="322.15" y1="409.41" x2="222.6" y2="581.84" xlink:href="#linear-gradient-10"/><linearGradient id="linear-gradient-14" x1="516.11" y1="142.78" x2="472.07" y2="219.05" gradientTransform="translate(878.77 792.13) rotate(180)" xlink:href="#linear-gradient-2"/><linearGradient id="linear-gradient-15" x1="513.95" y1="93.69" x2="486.02" y2="142.07" gradientTransform="translate(878.77 792.13) rotate(180)" xlink:href="#linear-gradient-2"/><linearGradient id="linear-gradient-16" x1="574.12" y1="162.62" x2="546.19" y2="211" gradientTransform="translate(878.77 792.13) rotate(180)" xlink:href="#linear-gradient-2"/><linearGradient id="linear-gradient-17" x1="588.07" y1="82.61" x2="544.03" y2="158.89" gradientTransform="translate(878.77 792.13) rotate(180)" xlink:href="#linear-gradient-2"/><linearGradient id="linear-gradient-18" x1="372.4" y1="147.75" x2="312.25" y2="251.94" gradientTransform="matrix(-0.87, -0.5, 0.5, -0.87, 605.39, 969.41)" xlink:href="#linear-gradient-6"/><linearGradient id="linear-gradient-19" x1="356.29" y1="87.59" x2="328.36" y2="135.97" gradientTransform="matrix(-0.87, -0.5, 0.5, -0.87, 605.39, 969.41)" xlink:href="#linear-gradient-6"/><linearGradient id="linear-gradient-20" x1="444.35" y1="175.66" x2="416.42" y2="224.03" gradientTransform="matrix(-0.87, -0.5, 0.5, -0.87, 605.39, 969.41)" xlink:href="#linear-gradient-6"/><linearGradient id="linear-gradient-21" x1="460.46" y1="59.69" x2="400.31" y2="163.87" gradientTransform="matrix(-0.87, -0.5, 0.5, -0.87, 605.39, 969.41)" xlink:href="#linear-gradient-6"/><linearGradient id="linear-gradient-22" x1="250.42" y1="223.92" x2="190.27" y2="328.11" gradientTransform="matrix(-0.5, -0.87, 0.87, -0.5, 279.99, 986.25)" xlink:href="#linear-gradient-10"/><linearGradient id="linear-gradient-23" x1="234.31" y1="163.76" x2="206.38" y2="212.14" gradientTransform="matrix(-0.5, -0.87, 0.87, -0.5, 279.99, 986.25)" xlink:href="#linear-gradient-10"/><linearGradient id="linear-gradient-24" x1="322.38" y1="251.82" x2="294.45" y2="300.2" gradientTransform="matrix(-0.5, -0.87, 0.87, -0.5, 279.99, 986.25)" xlink:href="#linear-gradient-10"/><linearGradient id="linear-gradient-25" x1="338.49" y1="135.86" x2="278.34" y2="240.04" gradientTransform="matrix(-0.5, -0.87, 0.87, -0.5, 279.99, 986.25)" xlink:href="#linear-gradient-10"/><linearGradient id="linear-gradient-26" x1="189.54" y1="177.06" x2="168.93" y2="212.76" gradientTransform="translate(878.77 792.13) rotate(180)" xlink:href="#linear-gradient-2"/><linearGradient id="linear-gradient-27" x1="188.53" y1="154.09" x2="175.46" y2="176.73" gradientTransform="translate(878.77 792.13) rotate(180)" xlink:href="#linear-gradient-2"/><linearGradient id="linear-gradient-28" x1="216.68" y1="186.35" x2="203.61" y2="208.99" gradientTransform="translate(878.77 792.13) rotate(180)" xlink:href="#linear-gradient-2"/><linearGradient id="linear-gradient-29" x1="223.21" y1="148.91" x2="202.6" y2="184.61" gradientTransform="translate(878.77 792.13) rotate(180)" xlink:href="#linear-gradient-2"/><linearGradient id="linear-gradient-30" x1="105.57" y1="345.02" x2="77.42" y2="393.78" gradientTransform="matrix(-0.87, -0.5, 0.5, -0.87, 605.39, 969.41)" xlink:href="#linear-gradient-6"/><linearGradient id="linear-gradient-31" x1="98.03" y1="316.87" x2="84.96" y2="339.51" gradientTransform="matrix(-0.87, -0.5, 0.5, -0.87, 605.39, 969.41)" xlink:href="#linear-gradient-6"/><linearGradient id="linear-gradient-32" x1="139.24" y1="358.08" x2="126.17" y2="380.72" gradientTransform="matrix(-0.87, -0.5, 0.5, -0.87, 605.39, 969.41)" xlink:href="#linear-gradient-6"/><linearGradient id="linear-gradient-33" x1="146.78" y1="303.81" x2="118.63" y2="352.56" gradientTransform="matrix(-0.87, -0.5, 0.5, -0.87, 605.39, 969.41)" xlink:href="#linear-gradient-6"/><linearGradient id="linear-gradient-34" x1="116.83" y1="532.46" x2="88.68" y2="581.22" gradientTransform="matrix(-0.5, -0.87, 0.87, -0.5, 279.99, 986.25)" xlink:href="#linear-gradient-10"/><linearGradient id="linear-gradient-35" x1="109.29" y1="504.31" x2="96.22" y2="526.95" gradientTransform="matrix(-0.5, -0.87, 0.87, -0.5, 279.99, 986.25)" xlink:href="#linear-gradient-10"/><linearGradient id="linear-gradient-36" x1="150.5" y1="545.52" x2="137.43" y2="568.16" gradientTransform="matrix(-0.5, -0.87, 0.87, -0.5, 279.99, 986.25)" xlink:href="#linear-gradient-10"/><linearGradient id="linear-gradient-37" x1="158.04" y1="491.25" x2="129.89" y2="540" gradientTransform="matrix(-0.5, -0.87, 0.87, -0.5, 279.99, 986.25)" xlink:href="#linear-gradient-10"/><linearGradient id="linear-gradient-38" x1="535.54" y1="567.06" x2="514.93" y2="602.76" gradientTransform="translate(878.77 792.13) rotate(180)" xlink:href="#linear-gradient-2"/><linearGradient id="linear-gradient-39" x1="534.53" y1="544.09" x2="521.46" y2="566.73" gradientTransform="translate(878.77 792.13) rotate(180)" xlink:href="#linear-gradient-2"/><linearGradient id="linear-gradient-40" x1="562.68" y1="576.35" x2="549.61" y2="598.99" gradientTransform="translate(878.77 792.13) rotate(180)" xlink:href="#linear-gradient-2"/><linearGradient id="linear-gradient-41" x1="569.21" y1="538.91" x2="548.6" y2="574.61" gradientTransform="translate(878.77 792.13) rotate(180)" xlink:href="#linear-gradient-2"/><linearGradient id="linear-gradient-42" x1="600.21" y1="509.77" x2="572.06" y2="558.53" gradientTransform="matrix(-0.87, -0.5, 0.5, -0.87, 605.39, 969.41)" xlink:href="#linear-gradient-6"/><linearGradient id="linear-gradient-43" x1="592.67" y1="481.62" x2="579.6" y2="504.26" gradientTransform="matrix(-0.87, -0.5, 0.5, -0.87, 605.39, 969.41)" xlink:href="#linear-gradient-6"/><linearGradient id="linear-gradient-44" x1="633.89" y1="522.83" x2="620.82" y2="545.47" gradientTransform="matrix(-0.87, -0.5, 0.5, -0.87, 605.39, 969.41)" xlink:href="#linear-gradient-6"/><linearGradient id="linear-gradient-45" x1="641.43" y1="468.56" x2="613.28" y2="517.31" gradientTransform="matrix(-0.87, -0.5, 0.5, -0.87, 605.39, 969.41)" xlink:href="#linear-gradient-6"/><linearGradient id="linear-gradient-46" x1="627.58" y1="427.82" x2="599.43" y2="476.57" gradientTransform="matrix(-0.5, -0.87, 0.87, -0.5, 279.99, 986.25)" xlink:href="#linear-gradient-10"/><linearGradient id="linear-gradient-47" x1="620.04" y1="399.66" x2="606.97" y2="422.3" gradientTransform="matrix(-0.5, -0.87, 0.87, -0.5, 279.99, 986.25)" xlink:href="#linear-gradient-10"/><linearGradient id="linear-gradient-48" x1="661.25" y1="440.88" x2="648.18" y2="463.51" gradientTransform="matrix(-0.5, -0.87, 0.87, -0.5, 279.99, 986.25)" xlink:href="#linear-gradient-10"/><linearGradient id="linear-gradient-49" x1="668.79" y1="386.6" x2="640.64" y2="435.36" gradientTransform="matrix(-0.5, -0.87, 0.87, -0.5, 279.99, 986.25)" xlink:href="#linear-gradient-10"/><linearGradient id="linear-gradient-50" x1="730.78" y1="414.67" x2="686.74" y2="490.95" gradientTransform="translate(-302.9 -344.16) rotate(30)" xlink:href="#linear-gradient-2"/><linearGradient id="linear-gradient-51" x1="728.62" y1="365.58" x2="700.69" y2="413.96" gradientTransform="translate(-302.9 -344.16) rotate(30)" xlink:href="#linear-gradient-2"/><linearGradient id="linear-gradient-52" x1="788.79" y1="434.52" x2="760.86" y2="482.89" gradientTransform="translate(-302.9 -344.16) rotate(30)" xlink:href="#linear-gradient-2"/><linearGradient id="linear-gradient-53" x1="802.74" y1="354.51" x2="758.7" y2="430.79" gradientTransform="translate(-302.9 -344.16) rotate(30)" xlink:href="#linear-gradient-2"/><linearGradient id="linear-gradient-54" x1="694.25" y1="275.89" x2="634.1" y2="380.07" gradientTransform="translate(22.5 -361) rotate(60)" xlink:href="#linear-gradient-6"/><linearGradient id="linear-gradient-55" x1="678.14" y1="215.72" x2="650.21" y2="264.1" gradientTransform="translate(22.5 -361) rotate(60)" xlink:href="#linear-gradient-6"/><linearGradient id="linear-gradient-56" x1="766.21" y1="303.79" x2="738.28" y2="352.16" gradientTransform="translate(22.5 -361) rotate(60)" xlink:href="#linear-gradient-6"/><linearGradient id="linear-gradient-57" x1="782.32" y1="187.82" x2="722.17" y2="292" gradientTransform="translate(22.5 -361) rotate(60)" xlink:href="#linear-gradient-6"/><linearGradient id="linear-gradient-58" x1="593.23" y1="173.96" x2="533.08" y2="278.14" gradientTransform="translate(312.72 -212.88) rotate(90)" xlink:href="#linear-gradient-10"/><linearGradient id="linear-gradient-59" x1="577.11" y1="113.8" x2="549.18" y2="162.17" gradientTransform="translate(312.72 -212.88) rotate(90)" xlink:href="#linear-gradient-10"/><linearGradient id="linear-gradient-60" x1="665.18" y1="201.86" x2="637.25" y2="250.24" gradientTransform="translate(312.72 -212.88) rotate(90)" xlink:href="#linear-gradient-10"/><linearGradient id="linear-gradient-61" x1="681.29" y1="85.89" x2="621.14" y2="190.08" gradientTransform="translate(312.72 -212.88) rotate(90)" xlink:href="#linear-gradient-10"/><linearGradient id="linear-gradient-62" y1="71.31" x2="1366" y2="71.31" gradientUnits="userSpaceOnUse"><stop offset="0" stop-color="#fff"/><stop offset="0.6" stop-color="#00452e"/><stop offset="1" stop-color="#002f2e"/></linearGradient></defs><title>BG1</title><g id="Layer_1" data-name="Layer 1"><rect class="cls-1" width="1366" height="768"/><path class="cls-2" d="M199.5,568.5a145.7,145.7,0,0,1,72.9,126.23,146.33,146.33,0,0,1-72.91,19.55A145.66,145.66,0,0,1,199.5,568.5Z"/><path class="cls-3" d="M203.83,571A145.68,145.68,0,0,1,77.6,643.9,146.28,146.28,0,0,1,58.06,571,145.69,145.69,0,0,1,203.83,571Z"/><path class="cls-4" d="M325.74,495.6a146.58,146.58,0,0,1,19.54,72.91,145.66,145.66,0,0,1-145.78,0A145.68,145.68,0,0,1,325.74,495.6Z"/><path class="cls-5" d="M199.5,568.5a145.68,145.68,0,0,1-72.9-126.24,146.3,146.3,0,0,1,72.92-19.53A145.69,145.69,0,0,1,199.5,568.5Z"/><path class="cls-6" d="M199.5,568.5a145.68,145.68,0,0,1-53.35,199.1A145.69,145.69,0,0,1,199.5,568.5Z"/><path class="cls-7" d="M199.5,568.5A145.68,145.68,0,0,1,.4,515.15,145.69,145.69,0,0,1,199.5,568.5Z"/><path class="cls-8" d="M398.6,621.85A145.69,145.69,0,0,1,199.5,568.5a145.69,145.69,0,0,1,199.1,53.35Z"/><path class="cls-9" d="M252.85,369.4A145.69,145.69,0,0,1,199.5,568.5a145.69,145.69,0,0,1,53.35-199.1Z"/><path class="cls-10" d="M199.5,568.5A145.68,145.68,0,0,1,53.75,714.25,145.69,145.69,0,0,1,199.5,568.5Z"/><path class="cls-11" d="M199.5,568.5A145.68,145.68,0,0,1,53.75,422.75,145.68,145.68,0,0,1,199.5,568.5Z"/><path class="cls-12" d="M345.25,714.25A145.69,145.69,0,0,1,199.5,568.5,145.69,145.69,0,0,1,345.25,714.25Z"/><path class="cls-13" d="M199.5,568.5A145.69,145.69,0,0,1,345.25,422.75,145.68,145.68,0,0,1,199.5,568.5Z"/><path class="cls-14" d="M348.7,641.3a88,88,0,0,1,44-76.28A88.32,88.32,0,0,1,425,597.26,88,88,0,0,1,348.7,641.3Z"/><path class="cls-15" d="M348.7,638.28a88,88,0,0,1,76.28,44,88.35,88.35,0,0,1-32.25,32.25A88,88,0,0,1,348.7,638.28Z"/><path class="cls-16" d="M272.42,597.26A88.48,88.48,0,0,1,304.67,565a88,88,0,0,1,44,76.28A88,88,0,0,1,272.42,597.26Z"/><path class="cls-17" d="M348.7,641.3a88,88,0,0,1-44,76.28,88.35,88.35,0,0,1-32.25-32.25A88,88,0,0,1,348.7,641.3Z"/><path class="cls-18" d="M348.7,641.3A88,88,0,0,1,469,609.07,88.05,88.05,0,0,1,348.7,641.3Z"/><path class="cls-19" d="M348.7,641.3a88,88,0,0,1,32.23,120.3A88,88,0,0,1,348.7,641.3Z"/><path class="cls-20" d="M316.47,521A88,88,0,0,1,348.7,641.3,88,88,0,0,1,316.47,521Z"/><path class="cls-21" d="M228.4,673.53A88,88,0,0,1,348.7,641.3a88,88,0,0,1-120.3,32.23Z"/><path class="cls-22" d="M348.7,641.3A88,88,0,0,1,469,673.53,88,88,0,0,1,348.7,641.3Z"/><path class="cls-23" d="M348.7,641.3a88,88,0,0,1-32.23,120.3A88,88,0,0,1,348.7,641.3Z"/><path class="cls-24" d="M380.93,521A88,88,0,0,1,348.7,641.3,88.05,88.05,0,0,1,380.93,521Z"/><path class="cls-25" d="M348.7,641.3a88.05,88.05,0,0,1-120.3-32.23A88,88,0,0,1,348.7,641.3Z"/><path class="cls-26" d="M682.7,611.3a41.2,41.2,0,0,1,20.61-35.7,41.44,41.44,0,0,1,15.09,15.09A41.18,41.18,0,0,1,682.7,611.3Z"/><path class="cls-27" d="M682.7,609.89a41.19,41.19,0,0,1,35.7,20.6,41.46,41.46,0,0,1-15.09,15.1A41.21,41.21,0,0,1,682.7,609.89Z"/><path class="cls-28" d="M647,590.69a41.51,41.51,0,0,1,15.09-15.09,41.18,41.18,0,0,1,20.61,35.7A41.2,41.2,0,0,1,647,590.69Z"/><path class="cls-29" d="M682.7,611.3A41.2,41.2,0,0,1,662.09,647,41.39,41.39,0,0,1,647,631.9,41.22,41.22,0,0,1,682.7,611.3Z"/><path class="cls-30" d="M682.7,611.3A41.19,41.19,0,0,1,739,596.21a41.2,41.2,0,0,1-56.3,15.09Z"/><path class="cls-31" d="M682.7,611.3a41.19,41.19,0,0,1,15.09,56.3,41.2,41.2,0,0,1-15.09-56.3Z"/><path class="cls-32" d="M667.62,555a41.21,41.21,0,0,1,15.08,56.3A41.2,41.2,0,0,1,667.62,555Z"/><path class="cls-33" d="M626.4,626.38a41.19,41.19,0,0,1,56.3-15.08,41.2,41.2,0,0,1-56.3,15.08Z"/><path class="cls-34" d="M682.7,611.3A41.19,41.19,0,0,1,739,626.38a41.2,41.2,0,0,1-56.3-15.08Z"/><path class="cls-35" d="M682.7,611.3a41.19,41.19,0,0,1-15.08,56.3,41.2,41.2,0,0,1,15.08-56.3Z"/><path class="cls-36" d="M697.79,555a41.22,41.22,0,0,1-15.09,56.3A41.2,41.2,0,0,1,697.79,555Z"/><path class="cls-37" d="M682.7,611.3a41.2,41.2,0,0,1-56.3-15.09,41.19,41.19,0,0,1,56.3,15.09Z"/><path class="cls-38" d="M336.7,221.3a41.2,41.2,0,0,1,20.61-35.7,41.44,41.44,0,0,1,15.09,15.09A41.18,41.18,0,0,1,336.7,221.3Z"/><path class="cls-39" d="M336.7,219.89a41.19,41.19,0,0,1,35.7,20.6,41.46,41.46,0,0,1-15.09,15.1A41.21,41.21,0,0,1,336.7,219.89Z"/><path class="cls-40" d="M301,200.69a41.51,41.51,0,0,1,15.09-15.09,41.18,41.18,0,0,1,20.61,35.7A41.2,41.2,0,0,1,301,200.69Z"/><path class="cls-41" d="M336.7,221.3A41.2,41.2,0,0,1,316.09,257,41.39,41.39,0,0,1,301,241.9,41.22,41.22,0,0,1,336.7,221.3Z"/><path class="cls-42" d="M336.7,221.3A41.19,41.19,0,0,1,393,206.21a41.2,41.2,0,0,1-56.3,15.09Z"/><path class="cls-43" d="M336.7,221.3a41.19,41.19,0,0,1,15.09,56.3,41.2,41.2,0,0,1-15.09-56.3Z"/><path class="cls-44" d="M321.62,165a41.21,41.21,0,0,1,15.08,56.3A41.2,41.2,0,0,1,321.62,165Z"/><path class="cls-45" d="M280.4,236.38a41.19,41.19,0,0,1,56.3-15.08,41.2,41.2,0,0,1-56.3,15.08Z"/><path class="cls-46" d="M336.7,221.3A41.19,41.19,0,0,1,393,236.38a41.2,41.2,0,0,1-56.3-15.08Z"/><path class="cls-47" d="M336.7,221.3a41.19,41.19,0,0,1-15.08,56.3,41.2,41.2,0,0,1,15.08-56.3Z"/><path class="cls-48" d="M351.79,165a41.22,41.22,0,0,1-15.09,56.3A41.2,41.2,0,0,1,351.79,165Z"/><path class="cls-49" d="M336.7,221.3a41.2,41.2,0,0,1-56.3-15.09,41.19,41.19,0,0,1,56.3,15.09Z"/><path class="cls-50" d="M130.7,394.3a88,88,0,0,1-76.27,44.05,88.38,88.38,0,0,1-11.81-44.06A88,88,0,0,1,130.7,394.3Z"/><path class="cls-51" d="M129.19,396.92a88.05,88.05,0,0,1-44-76.28,88.4,88.4,0,0,1,44.06-11.8A88,88,0,0,1,129.19,396.92Z"/><path class="cls-52" d="M174.75,470.58a88.67,88.67,0,0,1-44.05,11.8,88,88,0,0,1,0-88.08A88,88,0,0,1,174.75,470.58Z"/><path class="cls-53" d="M130.7,394.3A88,88,0,0,1,207,350.25a88.53,88.53,0,0,1,11.8,44.06A88,88,0,0,1,130.7,394.3Z"/><path class="cls-54" d="M130.7,394.3A88,88,0,0,1,10.4,362.07,88,88,0,0,1,130.7,394.3Z"/><path class="cls-55" d="M130.7,394.3A88,88,0,0,1,162.93,274,88,88,0,0,1,130.7,394.3Z"/><path class="cls-56" d="M98.47,514.6A88,88,0,0,1,130.7,394.3,88,88,0,0,1,98.47,514.6Z"/><path class="cls-57" d="M251,426.53A88,88,0,0,1,130.7,394.3,88,88,0,0,1,251,426.53Z"/><path class="cls-58" d="M130.7,394.3a88,88,0,0,1-88.06-88.07A88,88,0,0,1,130.7,394.3Z"/><path class="cls-59" d="M130.7,394.3a88,88,0,0,1,88.07-88.07A88,88,0,0,1,130.7,394.3Z"/><path class="cls-60" d="M42.64,482.36A88,88,0,0,1,130.7,394.3a88,88,0,0,1-88.06,88.06Z"/><path class="cls-61" d="M130.7,394.3a88,88,0,0,1,88.07,88.06A88,88,0,0,1,130.7,394.3Z"/><path class="cls-62" d="M1366,0V69.39A462.36,462.36,0,0,0,1294,59c-142.87-8.58-183,68.61-334,82C813.16,154,809.93,84.7,628,73c-210.37-13.53-222.75,78.09-418,60C114.75,124.17,63.16,97.32,0,77.57V0Z"/><path class="cls-63" d="M322,139Z"/></g></svg>