<svg xmlns="http://www.w3.org/2000/svg" xmlns:xlink="http://www.w3.org/1999/xlink" viewBox="0 0 1920 1079.47"><defs><style>.cls-1{fill:url(#linear-gradient);}.cls-10,.cls-11,.cls-12,.cls-13,.cls-14,.cls-15,.cls-16,.cls-17,.cls-18,.cls-19,.cls-2,.cls-20,.cls-21,.cls-22,.cls-23,.cls-24,.cls-25,.cls-26,.cls-27,.cls-28,.cls-29,.cls-3,.cls-30,.cls-31,.cls-32,.cls-33,.cls-34,.cls-35,.cls-36,.cls-37,.cls-38,.cls-39,.cls-4,.cls-40,.cls-41,.cls-42,.cls-43,.cls-44,.cls-45,.cls-46,.cls-47,.cls-48,.cls-49,.cls-5,.cls-50,.cls-51,.cls-52,.cls-53,.cls-54,.cls-55,.cls-56,.cls-57,.cls-58,.cls-59,.cls-6,.cls-60,.cls-61,.cls-7,.cls-8,.cls-9{opacity:0.13;}.cls-2{fill:url(#linear-gradient-2);}.cls-3{fill:url(#linear-gradient-3);}.cls-4{fill:url(#linear-gradient-4);}.cls-5{fill:url(#linear-gradient-5);}.cls-6{fill:url(#linear-gradient-6);}.cls-7{fill:url(#linear-gradient-7);}.cls-8{fill:url(#linear-gradient-8);}.cls-9{fill:url(#linear-gradient-9);}.cls-10{fill:url(#linear-gradient-10);}.cls-11{fill:url(#linear-gradient-11);}.cls-12{fill:url(#linear-gradient-12);}.cls-13{fill:url(#linear-gradient-13);}.cls-14{fill:url(#linear-gradient-14);}.cls-15{fill:url(#linear-gradient-15);}.cls-16{fill:url(#linear-gradient-16);}.cls-17{fill:url(#linear-gradient-17);}.cls-18{fill:url(#linear-gradient-18);}.cls-19{fill:url(#linear-gradient-19);}.cls-20{fill:url(#linear-gradient-20);}.cls-21{fill:url(#linear-gradient-21);}.cls-22{fill:url(#linear-gradient-22);}.cls-23{fill:url(#linear-gradient-23);}.cls-24{fill:url(#linear-gradient-24);}.cls-25{fill:url(#linear-gradient-25);}.cls-26{fill:url(#linear-gradient-26);}.cls-27{fill:url(#linear-gradient-27);}.cls-28{fill:url(#linear-gradient-28);}.cls-29{fill:url(#linear-gradient-29);}.cls-30{fill:url(#linear-gradient-30);}.cls-31{fill:url(#linear-gradient-31);}.cls-32{fill:url(#linear-gradient-32);}.cls-33{fill:url(#linear-gradient-33);}.cls-34{fill:url(#linear-gradient-34);}.cls-35{fill:url(#linear-gradient-35);}.cls-36{fill:url(#linear-gradient-36);}.cls-37{fill:url(#linear-gradient-37);}.cls-38{fill:url(#linear-gradient-38);}.cls-39{fill:url(#linear-gradient-39);}.cls-40{fill:url(#linear-gradient-40);}.cls-41{fill:url(#linear-gradient-41);}.cls-42{fill:url(#linear-gradient-42);}.cls-43{fill:url(#linear-gradient-43);}.cls-44{fill:url(#linear-gradient-44);}.cls-45{fill:url(#linear-gradient-45);}.cls-46{fill:url(#linear-gradient-46);}.cls-47{fill:url(#linear-gradient-47);}.cls-48{fill:url(#linear-gradient-48);}.cls-49{fill:url(#linear-gradient-49);}.cls-50{fill:url(#linear-gradient-50);}.cls-51{fill:url(#linear-gradient-51);}.cls-52{fill:url(#linear-gradient-52);}.cls-53{fill:url(#linear-gradient-53);}.cls-54{fill:url(#linear-gradient-54);}.cls-55{fill:url(#linear-gradient-55);}.cls-56{fill:url(#linear-gradient-56);}.cls-57{fill:url(#linear-gradient-57);}.cls-58{fill:url(#linear-gradient-58);}.cls-59{fill:url(#linear-gradient-59);}.cls-60{fill:url(#linear-gradient-60);}.cls-61{fill:url(#linear-gradient-61);}.cls-62{opacity:0.2;fill:url(#linear-gradient-62);}.cls-63{fill:url(#linear-gradient-63);}</style><linearGradient id="linear-gradient" x1="1433.71" y1="-280.49" x2="486.29" y2="1360.49" gradientTransform="matrix(1, 0, 0, -1, 0, 1079.74)" gradientUnits="userSpaceOnUse"><stop offset="0" stop-color="#97dfa1"/><stop offset="0.18" stop-color="#77bcb6"/><stop offset="0.38" stop-color="#589bc9"/><stop offset="0.49" stop-color="#4d8fd0"/><stop offset="0.58" stop-color="#5193d0"/><stop offset="0.67" stop-color="#5e9ed2"/><stop offset="0.76" stop-color="#74b0d4"/><stop offset="0.85" stop-color="#92cad7"/><stop offset="0.95" stop-color="#b9ebdc"/><stop offset="1" stop-color="#d0ffde"/></linearGradient><linearGradient id="linear-gradient-2" x1="287.88" y1="267.75" x2="185.44" y2="445.19" gradientTransform="matrix(0.5, 0.87, 0.87, -0.5, -127.88, 146.49)" gradientUnits="userSpaceOnUse"><stop offset="0" stop-color="#007353"/><stop offset="0.09" stop-color="#00745a"/><stop offset="0.23" stop-color="#00776c"/><stop offset="0.38" stop-color="#007d8a"/><stop offset="0.55" stop-color="#0084b4"/><stop offset="0.65" stop-color="#0089d0"/><stop offset="0.69" stop-color="#078dd0"/><stop offset="0.74" stop-color="#1c99d2"/><stop offset="0.8" stop-color="#3dabd4"/><stop offset="0.87" stop-color="#6bc6d7"/><stop offset="0.95" stop-color="#a5e7db"/><stop offset="1" stop-color="#d0ffde"/></linearGradient><linearGradient id="linear-gradient-3" x1="282.86" y1="153.57" x2="217.89" y2="266.1" xlink:href="#linear-gradient-2"/><linearGradient id="linear-gradient-4" x1="422.81" y1="313.92" x2="357.84" y2="426.46" xlink:href="#linear-gradient-2"/><linearGradient id="linear-gradient-5" x1="455.27" y1="127.8" x2="352.82" y2="305.25" xlink:href="#linear-gradient-2"/><linearGradient id="linear-gradient-6" x1="199.21" y1="518.82" x2="59.28" y2="761.17" gradientTransform="matrix(0.87, 0.5, 0.5, -0.87, -189.01, 630.38)" xlink:href="#linear-gradient-2"/><linearGradient id="linear-gradient-7" x1="161.73" y1="378.86" x2="96.76" y2="491.4" gradientTransform="matrix(0.87, 0.5, 0.5, -0.87, -189.01, 630.38)" xlink:href="#linear-gradient-2"/><linearGradient id="linear-gradient-8" x1="366.59" y1="583.72" x2="301.62" y2="696.26" gradientTransform="matrix(0.87, 0.5, 0.5, -0.87, -189.01, 630.38)" xlink:href="#linear-gradient-2"/><linearGradient id="linear-gradient-9" x1="404.06" y1="313.96" x2="264.14" y2="556.31" gradientTransform="matrix(0.87, 0.5, 0.5, -0.87, -189.01, 630.38)" xlink:href="#linear-gradient-2"/><linearGradient id="linear-gradient-10" x1="247.94" y1="780.58" x2="108.02" y2="1022.93" gradientTransform="matrix(1, 0, 0, -1, 0, 1080)" xlink:href="#linear-gradient-2"/><linearGradient id="linear-gradient-11" x1="210.47" y1="640.63" x2="145.49" y2="753.16" gradientTransform="matrix(1, 0, 0, -1, 0, 1080)" xlink:href="#linear-gradient-2"/><linearGradient id="linear-gradient-12" x1="415.33" y1="845.49" x2="350.36" y2="958.02" gradientTransform="matrix(1, 0, 0, -1, 0, 1080)" xlink:href="#linear-gradient-2"/><linearGradient id="linear-gradient-13" x1="452.8" y1="575.72" x2="312.88" y2="818.07" gradientTransform="matrix(1, 0, 0, -1, 0, 1080)" xlink:href="#linear-gradient-2"/><linearGradient id="linear-gradient-14" x1="923.03" y1="191.16" x2="861.13" y2="298.37" gradientTransform="matrix(-1, 0, 0, 1, 1432.77, -24.13)" xlink:href="#linear-gradient-2"/><linearGradient id="linear-gradient-15" x1="920" y1="122.16" x2="880.74" y2="190.16" gradientTransform="matrix(-1, 0, 0, 1, 1432.77, -24.13)" xlink:href="#linear-gradient-2"/><linearGradient id="linear-gradient-16" x1="1004.56" y1="219.05" x2="965.3" y2="287.05" gradientTransform="matrix(-1, 0, 0, 1, 1432.77, -24.13)" xlink:href="#linear-gradient-2"/><linearGradient id="linear-gradient-17" x1="1024.17" y1="106.59" x2="962.27" y2="213.81" gradientTransform="matrix(-1, 0, 0, 1, 1432.77, -24.13)" xlink:href="#linear-gradient-2"/><linearGradient id="linear-gradient-18" x1="708.98" y1="142.33" x2="624.43" y2="288.76" gradientTransform="matrix(-0.87, 0.5, 0.5, 0.87, 1044.28, -319.01)" xlink:href="#linear-gradient-2"/><linearGradient id="linear-gradient-19" x1="686.33" y1="57.76" x2="647.07" y2="125.76" gradientTransform="matrix(-0.87, 0.5, 0.5, 0.87, 1044.28, -319.01)" xlink:href="#linear-gradient-2"/><linearGradient id="linear-gradient-20" x1="810.11" y1="181.54" x2="770.86" y2="249.54" gradientTransform="matrix(-0.87, 0.5, 0.5, 0.87, 1044.28, -319.01)" xlink:href="#linear-gradient-2"/><linearGradient id="linear-gradient-21" x1="832.76" y1="18.54" x2="748.21" y2="164.98" gradientTransform="matrix(-0.87, 0.5, 0.5, 0.87, 1044.28, -319.01)" xlink:href="#linear-gradient-2"/><linearGradient id="linear-gradient-22" x1="499.18" y1="207.06" x2="414.64" y2="353.5" gradientTransform="matrix(-0.5, 0.87, 0.87, 0.5, 560.39, -380.14)" xlink:href="#linear-gradient-2"/><linearGradient id="linear-gradient-23" x1="476.54" y1="122.5" x2="437.28" y2="190.5" gradientTransform="matrix(-0.5, 0.87, 0.87, 0.5, 560.39, -380.14)" xlink:href="#linear-gradient-2"/><linearGradient id="linear-gradient-24" x1="600.32" y1="246.28" x2="561.06" y2="314.28" gradientTransform="matrix(-0.5, 0.87, 0.87, 0.5, 560.39, -380.14)" xlink:href="#linear-gradient-2"/><linearGradient id="linear-gradient-25" x1="622.96" y1="83.28" x2="538.42" y2="229.72" gradientTransform="matrix(-0.5, 0.87, 0.87, 0.5, 560.39, -380.14)" xlink:href="#linear-gradient-2"/><linearGradient id="linear-gradient-26" x1="464.01" y1="239.35" x2="435.04" y2="289.52" gradientTransform="matrix(-1, 0, 0, 1, 1432.77, -24.13)" xlink:href="#linear-gradient-2"/><linearGradient id="linear-gradient-27" x1="462.59" y1="207.06" x2="444.22" y2="238.88" gradientTransform="matrix(-1, 0, 0, 1, 1432.77, -24.13)" xlink:href="#linear-gradient-2"/><linearGradient id="linear-gradient-28" x1="502.16" y1="252.4" x2="483.79" y2="284.23" gradientTransform="matrix(-1, 0, 0, 1, 1432.77, -24.13)" xlink:href="#linear-gradient-2"/><linearGradient id="linear-gradient-29" x1="511.34" y1="199.77" x2="482.37" y2="249.95" gradientTransform="matrix(-1, 0, 0, 1, 1432.77, -24.13)" xlink:href="#linear-gradient-2"/><linearGradient id="linear-gradient-30" x1="333.93" y1="419.6" x2="294.37" y2="488.13" gradientTransform="matrix(-0.87, 0.5, 0.5, 0.87, 1044.28, -319.01)" xlink:href="#linear-gradient-2"/><linearGradient id="linear-gradient-31" x1="323.34" y1="380.02" x2="304.96" y2="411.85" gradientTransform="matrix(-0.87, 0.5, 0.5, 0.87, 1044.28, -319.01)" xlink:href="#linear-gradient-2"/><linearGradient id="linear-gradient-32" x1="381.26" y1="437.95" x2="362.89" y2="469.77" gradientTransform="matrix(-0.87, 0.5, 0.5, 0.87, 1044.28, -319.01)" xlink:href="#linear-gradient-2"/><linearGradient id="linear-gradient-33" x1="391.86" y1="361.67" x2="352.29" y2="430.2" gradientTransform="matrix(-0.87, 0.5, 0.5, 0.87, 1044.28, -319.01)" xlink:href="#linear-gradient-2"/><linearGradient id="linear-gradient-34" x1="311.41" y1="640.74" x2="271.84" y2="709.27" gradientTransform="matrix(-0.5, 0.87, 0.87, 0.5, 560.39, -380.14)" xlink:href="#linear-gradient-2"/><linearGradient id="linear-gradient-35" x1="300.81" y1="601.16" x2="282.44" y2="632.98" gradientTransform="matrix(-0.5, 0.87, 0.87, 0.5, 560.39, -380.14)" xlink:href="#linear-gradient-2"/><linearGradient id="linear-gradient-36" x1="358.74" y1="659.09" x2="340.37" y2="690.91" gradientTransform="matrix(-0.5, 0.87, 0.87, 0.5, 560.39, -380.14)" xlink:href="#linear-gradient-2"/><linearGradient id="linear-gradient-37" x1="369.34" y1="582.81" x2="329.77" y2="651.34" gradientTransform="matrix(-0.5, 0.87, 0.87, 0.5, 560.39, -380.14)" xlink:href="#linear-gradient-2"/><linearGradient id="linear-gradient-38" x1="950.33" y1="787.52" x2="921.37" y2="837.69" gradientTransform="matrix(-1, 0, 0, 1, 1432.77, -24.13)" xlink:href="#linear-gradient-2"/><linearGradient id="linear-gradient-39" x1="948.91" y1="755.23" x2="930.54" y2="787.05" gradientTransform="matrix(-1, 0, 0, 1, 1432.77, -24.13)" xlink:href="#linear-gradient-2"/><linearGradient id="linear-gradient-40" x1="988.49" y1="800.57" x2="970.12" y2="832.4" gradientTransform="matrix(-1, 0, 0, 1, 1432.77, -24.13)" xlink:href="#linear-gradient-2"/><linearGradient id="linear-gradient-41" x1="997.67" y1="747.94" x2="968.7" y2="798.12" gradientTransform="matrix(-1, 0, 0, 1, 1432.77, -24.13)" xlink:href="#linear-gradient-2"/><linearGradient id="linear-gradient-42" x1="1029.19" y1="651.16" x2="989.62" y2="719.69" gradientTransform="matrix(-0.87, 0.5, 0.5, 0.87, 1044.28, -319.01)" xlink:href="#linear-gradient-2"/><linearGradient id="linear-gradient-43" x1="1018.59" y1="611.59" x2="1000.22" y2="643.41" gradientTransform="matrix(-0.87, 0.5, 0.5, 0.87, 1044.28, -319.01)" xlink:href="#linear-gradient-2"/><linearGradient id="linear-gradient-44" x1="1076.52" y1="669.52" x2="1058.15" y2="701.34" gradientTransform="matrix(-0.87, 0.5, 0.5, 0.87, 1044.28, -319.01)" xlink:href="#linear-gradient-2"/><linearGradient id="linear-gradient-45" x1="1087.12" y1="593.24" x2="1047.55" y2="661.77" gradientTransform="matrix(-0.87, 0.5, 0.5, 0.87, 1044.28, -319.01)" xlink:href="#linear-gradient-2"/><linearGradient id="linear-gradient-46" x1="1029.3" y1="493.65" x2="989.73" y2="562.18" gradientTransform="matrix(-0.5, 0.87, 0.87, 0.5, 560.39, -380.14)" xlink:href="#linear-gradient-2"/><linearGradient id="linear-gradient-47" x1="1018.7" y1="454.08" x2="1000.33" y2="485.9" gradientTransform="matrix(-0.5, 0.87, 0.87, 0.5, 560.39, -380.14)" xlink:href="#linear-gradient-2"/><linearGradient id="linear-gradient-48" x1="1076.63" y1="512" x2="1058.26" y2="543.83" gradientTransform="matrix(-0.5, 0.87, 0.87, 0.5, 560.39, -380.14)" xlink:href="#linear-gradient-2"/><linearGradient id="linear-gradient-49" x1="1087.23" y1="435.72" x2="1047.66" y2="504.25" gradientTransform="matrix(-0.5, 0.87, 0.87, 0.5, 560.39, -380.14)" xlink:href="#linear-gradient-2"/><linearGradient id="linear-gradient-50" x1="810.23" y1="683.01" x2="748.33" y2="790.23" gradientTransform="matrix(0.87, -0.5, -0.5, -0.87, -187.79, 1541.76)" xlink:href="#linear-gradient-2"/><linearGradient id="linear-gradient-51" x1="807.19" y1="614.02" x2="767.94" y2="682.02" gradientTransform="matrix(0.87, -0.5, -0.5, -0.87, -187.79, 1541.76)" xlink:href="#linear-gradient-2"/><linearGradient id="linear-gradient-52" x1="891.75" y1="710.91" x2="852.5" y2="778.91" gradientTransform="matrix(0.87, -0.5, -0.5, -0.87, -187.79, 1541.76)" xlink:href="#linear-gradient-2"/><linearGradient id="linear-gradient-53" x1="911.36" y1="598.45" x2="849.46" y2="705.67" gradientTransform="matrix(0.87, -0.5, -0.5, -0.87, -187.79, 1541.76)" xlink:href="#linear-gradient-2"/><linearGradient id="linear-gradient-54" x1="857.21" y1="624.69" x2="772.67" y2="771.12" gradientTransform="matrix(0.5, -0.87, -0.87, -0.5, 296.1, 1602.89)" xlink:href="#linear-gradient-2"/><linearGradient id="linear-gradient-55" x1="834.57" y1="540.13" x2="795.31" y2="608.12" gradientTransform="matrix(0.5, -0.87, -0.87, -0.5, 296.1, 1602.89)" xlink:href="#linear-gradient-2"/><linearGradient id="linear-gradient-56" x1="958.35" y1="663.91" x2="919.09" y2="731.9" gradientTransform="matrix(0.5, -0.87, -0.87, -0.5, 296.1, 1602.89)" xlink:href="#linear-gradient-2"/><linearGradient id="linear-gradient-57" x1="980.99" y1="500.91" x2="896.45" y2="647.34" gradientTransform="matrix(0.5, -0.87, -0.87, -0.5, 296.1, 1602.89)" xlink:href="#linear-gradient-2"/><linearGradient id="linear-gradient-58" x1="868.74" y1="550.68" x2="784.2" y2="697.12" gradientTransform="matrix(0, -1, -1, 0, 745.72, 1413.88)" xlink:href="#linear-gradient-2"/><linearGradient id="linear-gradient-59" x1="846.1" y1="466.12" x2="806.84" y2="534.12" gradientTransform="matrix(0, -1, -1, 0, 745.72, 1413.88)" xlink:href="#linear-gradient-2"/><linearGradient id="linear-gradient-60" x1="969.88" y1="589.9" x2="930.62" y2="657.9" gradientTransform="matrix(0, -1, -1, 0, 745.72, 1413.88)" xlink:href="#linear-gradient-2"/><linearGradient id="linear-gradient-61" x1="992.52" y1="426.9" x2="907.98" y2="573.34" gradientTransform="matrix(0, -1, -1, 0, 745.72, 1413.88)" xlink:href="#linear-gradient-2"/><linearGradient id="linear-gradient-62" y1="100.5" x2="1920" y2="100.5" gradientTransform="matrix(1, 0, 0, -1, 0, 1080)" gradientUnits="userSpaceOnUse"><stop offset="0" stop-color="#fff" stop-opacity="0"/><stop offset="1"/></linearGradient><linearGradient id="linear-gradient-63" x1="452.59" y1="195.64" x2="452.59" y2="195.64" gradientTransform="matrix(1, 0, 0, -1, 0, 1080)" xlink:href="#linear-gradient-2"/></defs><title>BG7</title><g id="Layer_1" data-name="Layer 1"><rect class="cls-1" width="1920" height="1079.47"/><path class="cls-2" d="M280.41,280.67A204.79,204.79,0,0,0,382.88,103.25,205.61,205.61,0,0,0,280.4,75.78,204.7,204.7,0,0,0,280.41,280.67Z" transform="translate(0 -0.26)"/><path class="cls-3" d="M286.5,277.16A204.8,204.8,0,0,0,109.07,174.69,205.56,205.56,0,0,0,81.61,277.18,204.78,204.78,0,0,0,286.5,277.16Z" transform="translate(0 -0.26)"/><path class="cls-4" d="M457.85,383.13a206,206,0,0,0,27.46-102.47,204.77,204.77,0,0,0-204.9,0A204.75,204.75,0,0,0,457.85,383.13Z" transform="translate(0 -0.26)"/><path class="cls-5" d="M280.41,280.67A204.75,204.75,0,0,0,178,458.11a205.54,205.54,0,0,0,102.48,27.45A204.75,204.75,0,0,0,280.41,280.67Z" transform="translate(0 -0.26)"/><path class="cls-6" d="M280.41,280.67A204.77,204.77,0,0,0,205.43.83a204.77,204.77,0,0,0,75,279.84Z" transform="translate(0 -0.26)"/><path class="cls-7" d="M280.41,280.67a204.78,204.78,0,0,0-279.85,75,204.77,204.77,0,0,0,279.85-75Z" transform="translate(0 -0.26)"/><path class="cls-8" d="M560.26,205.69a204.78,204.78,0,0,0-279.85,75,204.78,204.78,0,0,0,279.85-75Z" transform="translate(0 -0.26)"/><path class="cls-9" d="M355.39,560.52a204.75,204.75,0,0,0-75-279.85,204.8,204.8,0,0,0,75,279.85Z" transform="translate(0 -0.26)"/><path class="cls-10" d="M280.41,280.67A204.76,204.76,0,0,0,75.55,75.81,204.77,204.77,0,0,0,280.41,280.67Z" transform="translate(0 -0.26)"/><path class="cls-11" d="M280.41,280.67A204.77,204.77,0,0,0,75.55,485.53,204.74,204.74,0,0,0,280.41,280.67Z" transform="translate(0 -0.26)"/><path class="cls-12" d="M485.27,75.81A204.79,204.79,0,0,0,280.41,280.67,204.77,204.77,0,0,0,485.27,75.81Z" transform="translate(0 -0.26)"/><path class="cls-13" d="M280.41,280.67A204.76,204.76,0,0,0,485.27,485.53,204.77,204.77,0,0,0,280.41,280.67Z" transform="translate(0 -0.26)"/><path class="cls-14" d="M490.12,178.35A123.72,123.72,0,0,0,552,285.57a124.25,124.25,0,0,0,45.33-45.33A123.71,123.71,0,0,0,490.12,178.35Z" transform="translate(0 -0.26)"/><path class="cls-15" d="M490.12,182.6a123.74,123.74,0,0,0,107.22-61.89A124.25,124.25,0,0,0,552,75.38,123.72,123.72,0,0,0,490.12,182.6Z" transform="translate(0 -0.26)"/><path class="cls-16" d="M382.9,240.24a124.4,124.4,0,0,0,45.33,45.33,123.71,123.71,0,0,0,61.89-107.22A123.71,123.71,0,0,0,382.9,240.24Z" transform="translate(0 -0.26)"/><path class="cls-17" d="M490.12,178.35A123.71,123.71,0,0,0,428.23,71.13a124.25,124.25,0,0,0-45.33,45.33A123.72,123.72,0,0,0,490.12,178.35Z" transform="translate(0 -0.26)"/><path class="cls-18" d="M490.12,178.35a123.74,123.74,0,0,0,169.09,45.31,123.73,123.73,0,0,0-169.09-45.31Z" transform="translate(0 -0.26)"/><path class="cls-19" d="M490.12,178.35A123.74,123.74,0,0,0,535.43,9.26a123.73,123.73,0,0,0-45.31,169.09Z" transform="translate(0 -0.26)"/><path class="cls-20" d="M444.81,347.44a123.73,123.73,0,0,0,45.31-169.09,123.74,123.74,0,0,0-45.31,169.09Z" transform="translate(0 -0.26)"/><path class="cls-21" d="M321,133a123.73,123.73,0,0,0,169.09,45.31A123.74,123.74,0,0,0,321,133Z" transform="translate(0 -0.26)"/><path class="cls-22" d="M490.12,178.35A123.73,123.73,0,0,0,659.21,133a123.74,123.74,0,0,0-169.09,45.31Z" transform="translate(0 -0.26)"/><path class="cls-23" d="M490.12,178.35A123.71,123.71,0,0,0,444.81,9.26a123.74,123.74,0,0,0,45.31,169.09Z" transform="translate(0 -0.26)"/><path class="cls-24" d="M535.43,347.44a123.74,123.74,0,0,0-45.31-169.09,123.73,123.73,0,0,0,45.31,169.09Z" transform="translate(0 -0.26)"/><path class="cls-25" d="M490.12,178.35A123.73,123.73,0,0,0,321,223.66a123.74,123.74,0,0,0,169.09-45.31Z" transform="translate(0 -0.26)"/><path class="cls-26" d="M959.58,220.52a57.89,57.89,0,0,0,29,50.17,58.1,58.1,0,0,0,21.22-21.21A57.91,57.91,0,0,0,959.58,220.52Z" transform="translate(0 -0.26)"/><path class="cls-27" d="M959.58,222.5a57.92,57.92,0,0,0,50.18-29,58.17,58.17,0,0,0-21.22-21.21A57.89,57.89,0,0,0,959.58,222.5Z" transform="translate(0 -0.26)"/><path class="cls-28" d="M909.4,249.48a58.22,58.22,0,0,0,21.21,21.21,57.88,57.88,0,0,0,29-50.17A57.91,57.91,0,0,0,909.4,249.48Z" transform="translate(0 -0.26)"/><path class="cls-29" d="M959.58,220.52a57.88,57.88,0,0,0-29-50.18,58.22,58.22,0,0,0-21.21,21.21A57.91,57.91,0,0,0,959.58,220.52Z" transform="translate(0 -0.26)"/><path class="cls-30" d="M959.58,220.52a57.9,57.9,0,0,0,79.13,21.2,57.89,57.89,0,0,0-79.13-21.2Z" transform="translate(0 -0.26)"/><path class="cls-31" d="M959.58,220.52a57.92,57.92,0,0,0,21.2-79.14,57.91,57.91,0,0,0-21.2,79.14Z" transform="translate(0 -0.26)"/><path class="cls-32" d="M938.38,299.65a57.91,57.91,0,0,0,21.2-79.13,57.9,57.9,0,0,0-21.2,79.13Z" transform="translate(0 -0.26)"/><path class="cls-33" d="M880.45,199.31a57.9,57.9,0,0,0,79.13,21.21,57.9,57.9,0,0,0-79.13-21.21Z" transform="translate(0 -0.26)"/><path class="cls-34" d="M959.58,220.52a57.9,57.9,0,0,0,79.13-21.21,57.9,57.9,0,0,0-79.13,21.21Z" transform="translate(0 -0.26)"/><path class="cls-35" d="M959.58,220.52a57.91,57.91,0,0,0-21.2-79.14,57.92,57.92,0,0,0,21.2,79.14Z" transform="translate(0 -0.26)"/><path class="cls-36" d="M980.78,299.65a57.9,57.9,0,0,0-21.2-79.13,57.91,57.91,0,0,0,21.2,79.13Z" transform="translate(0 -0.26)"/><path class="cls-37" d="M959.58,220.52a57.89,57.89,0,0,0-79.13,21.2,57.9,57.9,0,0,0,79.13-21.2Z" transform="translate(0 -0.26)"/><path class="cls-38" d="M473.25,768.69a57.88,57.88,0,0,0,29,50.17,58.07,58.07,0,0,0,21.21-21.21A57.9,57.9,0,0,0,473.25,768.69Z" transform="translate(0 -0.26)"/><path class="cls-39" d="M473.25,770.67a57.9,57.9,0,0,0,50.18-29,58.14,58.14,0,0,0-21.21-21.21A57.88,57.88,0,0,0,473.25,770.67Z" transform="translate(0 -0.26)"/><path class="cls-40" d="M423.08,797.65a58.14,58.14,0,0,0,21.21,21.21,57.87,57.87,0,0,0,29-50.17A57.89,57.89,0,0,0,423.08,797.65Z" transform="translate(0 -0.26)"/><path class="cls-41" d="M473.25,768.69a57.88,57.88,0,0,0-29-50.18,58.14,58.14,0,0,0-21.21,21.21A57.88,57.88,0,0,0,473.25,768.69Z" transform="translate(0 -0.26)"/><path class="cls-42" d="M473.25,768.69a57.92,57.92,0,0,0,79.14,21.2,57.91,57.91,0,0,0-79.14-21.2Z" transform="translate(0 -0.26)"/><path class="cls-43" d="M473.25,768.69a57.91,57.91,0,0,0,21.21-79.14,57.92,57.92,0,0,0-21.21,79.14Z" transform="translate(0 -0.26)"/><path class="cls-44" d="M452.05,847.82a57.89,57.89,0,0,0,21.2-79.13,57.9,57.9,0,0,0-21.2,79.13Z" transform="translate(0 -0.26)"/><path class="cls-45" d="M394.12,747.48a57.91,57.91,0,0,0,79.13,21.21,57.9,57.9,0,0,0-79.13-21.21Z" transform="translate(0 -0.26)"/><path class="cls-46" d="M473.25,768.69a57.92,57.92,0,0,0,79.14-21.21,57.91,57.91,0,0,0-79.14,21.21Z" transform="translate(0 -0.26)"/><path class="cls-47" d="M473.25,768.69a57.91,57.91,0,0,0-21.2-79.14,57.92,57.92,0,0,0,21.2,79.14Z" transform="translate(0 -0.26)"/><path class="cls-48" d="M494.46,847.82a57.9,57.9,0,0,0-21.21-79.13,57.9,57.9,0,0,0,21.21,79.13Z" transform="translate(0 -0.26)"/><path class="cls-49" d="M473.25,768.69a57.9,57.9,0,0,0-79.13,21.2,57.9,57.9,0,0,0,79.13-21.2Z" transform="translate(0 -0.26)"/><path class="cls-50" d="M183.71,525.52A123.74,123.74,0,0,0,76.5,463.61a124.28,124.28,0,0,0-16.59,61.92A123.7,123.7,0,0,0,183.71,525.52Z" transform="translate(0 -0.26)"/><path class="cls-51" d="M181.59,521.85a123.74,123.74,0,0,0-61.92,107.2,124.22,124.22,0,0,0,61.93,16.6A123.75,123.75,0,0,0,181.59,521.85Z" transform="translate(0 -0.26)"/><path class="cls-52" d="M245.62,418.31a124.48,124.48,0,0,0-61.92-16.59,123.7,123.7,0,0,0,0,123.8A123.72,123.72,0,0,0,245.62,418.31Z" transform="translate(0 -0.26)"/><path class="cls-53" d="M183.71,525.52a123.7,123.7,0,0,0,107.21,61.91,124.28,124.28,0,0,0,16.59-61.92A123.72,123.72,0,0,0,183.71,525.52Z" transform="translate(0 -0.26)"/><path class="cls-54" d="M183.71,525.52A123.73,123.73,0,0,0,14.62,570.83a123.74,123.74,0,0,0,169.09-45.31Z" transform="translate(0 -0.26)"/><path class="cls-55" d="M183.71,525.52A123.71,123.71,0,0,0,229,694.61a123.74,123.74,0,0,0-45.31-169.09Z" transform="translate(0 -0.26)"/><path class="cls-56" d="M138.4,356.44a123.72,123.72,0,0,0,45.31,169.08A123.71,123.71,0,0,0,138.4,356.44Z" transform="translate(0 -0.26)"/><path class="cls-57" d="M352.8,480.22a123.72,123.72,0,0,0-169.09,45.3,123.74,123.74,0,0,0,169.09-45.3Z" transform="translate(0 -0.26)"/><path class="cls-58" d="M183.71,525.52A123.72,123.72,0,0,0,59.93,649.3,123.74,123.74,0,0,0,183.71,525.52Z" transform="translate(0 -0.26)"/><path class="cls-59" d="M183.71,525.52A123.71,123.71,0,0,0,307.49,649.3,123.72,123.72,0,0,0,183.71,525.52Z" transform="translate(0 -0.26)"/><path class="cls-60" d="M59.93,401.74A123.72,123.72,0,0,0,183.71,525.52,123.74,123.74,0,0,0,59.93,401.74Z" transform="translate(0 -0.26)"/><path class="cls-61" d="M183.71,525.52A123.72,123.72,0,0,0,307.49,401.74,123.71,123.71,0,0,0,183.71,525.52Z" transform="translate(0 -0.26)"/><path class="cls-62" d="M1920,1079.74V982.2a649.51,649.51,0,0,1-101.2,14.61c-200.81,12.06-257.18-96.44-469.46-115.26-206.39-18.3-210.93,79.14-466.65,95.58C587,996.15,569.6,867.37,295.17,892.8,161.29,905.21,88.78,943,0,970.71v109Z" transform="translate(0 -0.26)"/><path class="cls-63" d="M452.59,884.36Z" transform="translate(0 -0.26)"/></g></svg>